<svg xmlns="http://www.w3.org/2000/svg" xmlns:xlink="http://www.w3.org/1999/xlink" width="500" zoomAndPan="magnify" viewBox="0 0 375 374.999991" height="500" preserveAspectRatio="xMidYMid meet" version="1.0"><defs><g/></defs><g fill="#000000" fill-opacity="1"><g transform="translate(45.594508, 205.511999)"><g><path d="M 16.59375 -47.847656 C 16.734375 -47.847656 16.800781 -47.914062 16.800781 -48.054688 C 16.800781 -48.191406 16.734375 -48.332031 16.59375 -48.332031 L 3.113281 -48.332031 C 2.972656 -48.332031 2.902344 -48.191406 2.902344 -48.054688 C 2.902344 -47.914062 2.972656 -47.847656 3.113281 -47.847656 C 4.703125 -47.847656 6.015625 -46.53125 6.015625 -44.941406 L 6.015625 -3.113281 C 6.015625 -1.519531 4.703125 -0.207031 3.113281 -0.207031 C 2.972656 -0.207031 2.902344 -0.0703125 2.902344 0 C 2.902344 0.136719 2.972656 0.277344 3.113281 0.277344 L 16.59375 0.277344 C 16.734375 0.277344 16.800781 0.136719 16.800781 0 C 16.800781 -0.0703125 16.734375 -0.207031 16.59375 -0.207031 C 15.003906 -0.207031 13.691406 -1.519531 13.691406 -3.113281 L 13.691406 -44.941406 C 13.691406 -46.53125 15.003906 -47.847656 16.59375 -47.847656 Z M 41.347656 -0.207031 C 39.6875 -0.207031 37.613281 -1.519531 36.644531 -3.179688 L 22.957031 -27.171875 L 36.09375 -44.804688 C 37.335938 -46.464844 39.6875 -47.847656 41.347656 -47.847656 C 41.484375 -47.847656 41.554688 -47.914062 41.554688 -48.054688 C 41.554688 -48.191406 41.484375 -48.332031 41.347656 -48.332031 L 35.125 -48.332031 C 34.984375 -48.332031 34.847656 -48.191406 34.847656 -48.054688 C 34.847656 -47.914062 34.984375 -47.847656 35.125 -47.847656 C 35.539062 -47.847656 36.09375 -47.707031 36.300781 -47.292969 C 36.578125 -46.808594 36.367188 -45.980469 35.675781 -45.082031 L 17.769531 -21.019531 C 17.699219 -20.949219 17.699219 -20.949219 17.699219 -20.949219 C 17.699219 -20.882812 17.699219 -20.882812 17.699219 -20.882812 C 17.699219 -20.882812 17.699219 -20.882812 17.699219 -20.8125 C 17.699219 -20.8125 17.699219 -20.742188 17.699219 -20.742188 L 27.863281 -2.972656 C 28.347656 -2.144531 28.488281 -1.382812 28.140625 -0.828125 C 27.933594 -0.414062 27.449219 -0.207031 26.757812 -0.207031 C 26.621094 -0.207031 26.550781 -0.0703125 26.550781 0 C 26.550781 0.136719 26.621094 0.277344 26.757812 0.277344 L 41.347656 0.277344 C 41.484375 0.277344 41.554688 0.136719 41.554688 0 C 41.554688 -0.0703125 41.484375 -0.207031 41.347656 -0.207031 Z M 41.347656 -0.207031 "/></g></g></g><g fill="#000000" fill-opacity="1"><g transform="translate(93.232817, 205.511999)"><g><path d="M 38.097656 -36.578125 C 38.097656 -36.4375 38.167969 -36.300781 38.304688 -36.300781 C 38.441406 -36.300781 38.582031 -36.4375 38.582031 -36.578125 L 38.582031 -48.054688 C 38.582031 -48.191406 38.441406 -48.332031 38.304688 -48.332031 L 3.113281 -48.332031 C 2.972656 -48.332031 2.902344 -48.191406 2.902344 -48.054688 C 2.902344 -47.914062 2.972656 -47.847656 3.113281 -47.847656 C 4.703125 -47.847656 6.015625 -46.53125 6.015625 -44.941406 L 6.015625 -3.113281 C 6.015625 -1.519531 4.703125 -0.207031 3.113281 -0.207031 C 2.972656 -0.207031 2.902344 -0.0703125 2.902344 0 C 2.902344 0.136719 2.972656 0.277344 3.113281 0.277344 L 13.414062 0.277344 C 13.414062 0.277344 13.484375 0.277344 13.484375 0.277344 L 38.304688 0.277344 C 38.441406 0.277344 38.582031 0.136719 38.582031 0.0703125 L 38.582031 -11.476562 C 38.582031 -11.617188 38.441406 -11.753906 38.304688 -11.753906 C 38.167969 -11.753906 38.097656 -11.617188 38.097656 -11.476562 C 38.097656 -5.253906 32.980469 -0.207031 26.757812 -0.207031 L 13.691406 -0.207031 L 13.691406 -47.847656 L 26.757812 -47.847656 C 32.980469 -47.847656 38.097656 -42.800781 38.097656 -36.578125 Z M 26.273438 -32.21875 C 26.273438 -27.796875 22.679688 -24.269531 18.324219 -24.269531 C 18.183594 -24.269531 18.046875 -24.128906 18.046875 -23.992188 C 18.046875 -23.921875 18.183594 -23.785156 18.324219 -23.785156 C 22.679688 -23.785156 26.273438 -20.191406 26.273438 -15.832031 C 26.273438 -15.695312 26.34375 -15.558594 26.480469 -15.558594 C 26.621094 -15.558594 26.757812 -15.695312 26.757812 -15.832031 L 26.757812 -32.21875 C 26.757812 -32.359375 26.621094 -32.429688 26.480469 -32.429688 C 26.34375 -32.429688 26.273438 -32.359375 26.273438 -32.21875 Z M 26.273438 -32.21875 "/></g></g></g><g fill="#000000" fill-opacity="1"><g transform="translate(140.387133, 205.511999)"><g><path d="M 38.304688 -11.753906 C 38.167969 -11.753906 38.097656 -11.617188 38.097656 -11.476562 C 38.097656 -5.253906 32.980469 -0.207031 26.757812 -0.207031 L 13.691406 -0.207031 L 13.691406 -44.941406 C 13.691406 -46.53125 15.003906 -47.847656 16.59375 -47.847656 C 16.734375 -47.847656 16.800781 -47.914062 16.800781 -48.054688 C 16.800781 -48.191406 16.734375 -48.332031 16.59375 -48.332031 L 3.113281 -48.332031 C 2.972656 -48.332031 2.902344 -48.191406 2.902344 -48.054688 C 2.902344 -47.914062 2.972656 -47.847656 3.113281 -47.847656 C 4.703125 -47.847656 6.015625 -46.53125 6.015625 -44.941406 L 6.015625 -3.113281 C 6.015625 -1.519531 4.703125 -0.207031 3.113281 -0.207031 C 2.972656 -0.207031 2.902344 -0.0703125 2.902344 0 C 2.902344 0.136719 2.972656 0.277344 3.113281 0.277344 L 38.304688 0.277344 C 38.441406 0.277344 38.582031 0.136719 38.582031 0 L 38.582031 -11.476562 C 38.582031 -11.617188 38.441406 -11.753906 38.304688 -11.753906 Z M 38.304688 -11.753906 "/></g></g></g><g fill="#000000" fill-opacity="1"><g transform="translate(185.743802, 205.511999)"><g><path d="M 26.894531 -49.367188 C 13.621094 -49.367188 2.902344 -38.027344 2.902344 -24.0625 C 2.902344 -10.09375 13.621094 1.246094 26.894531 1.246094 C 40.101562 1.246094 50.890625 -10.09375 50.890625 -24.0625 C 50.890625 -38.027344 40.101562 -49.367188 26.894531 -49.367188 Z M 26.894531 0.761719 C 18.390625 0.761719 11.476562 -10.371094 11.476562 -24.0625 C 11.476562 -37.75 18.390625 -48.882812 26.894531 -48.882812 C 35.332031 -48.882812 42.246094 -37.75 42.246094 -24.0625 C 42.246094 -10.371094 35.332031 0.761719 26.894531 0.761719 Z M 26.894531 0.761719 "/></g></g></g><g fill="#000000" fill-opacity="1"><g transform="translate(244.790311, 205.511999)"><g><path d="M 38.304688 -11.753906 C 38.167969 -11.753906 38.097656 -11.617188 38.097656 -11.476562 C 38.097656 -5.253906 32.980469 -0.207031 26.757812 -0.207031 L 13.691406 -0.207031 L 13.691406 -44.941406 C 13.691406 -46.53125 15.003906 -47.847656 16.59375 -47.847656 C 16.734375 -47.847656 16.800781 -47.914062 16.800781 -48.054688 C 16.800781 -48.191406 16.734375 -48.332031 16.59375 -48.332031 L 3.113281 -48.332031 C 2.972656 -48.332031 2.902344 -48.191406 2.902344 -48.054688 C 2.902344 -47.914062 2.972656 -47.847656 3.113281 -47.847656 C 4.703125 -47.847656 6.015625 -46.53125 6.015625 -44.941406 L 6.015625 -3.113281 C 6.015625 -1.519531 4.703125 -0.207031 3.113281 -0.207031 C 2.972656 -0.207031 2.902344 -0.0703125 2.902344 0 C 2.902344 0.136719 2.972656 0.277344 3.113281 0.277344 L 38.304688 0.277344 C 38.441406 0.277344 38.582031 0.136719 38.582031 0 L 38.582031 -11.476562 C 38.582031 -11.617188 38.441406 -11.753906 38.304688 -11.753906 Z M 38.304688 -11.753906 "/></g></g></g><g fill="#000000" fill-opacity="1"><g transform="translate(290.146974, 205.511999)"><g><path d="M 46.117188 -0.207031 C 44.457031 -0.207031 42.660156 -1.519531 41.96875 -3.113281 L 23.578125 -49.230469 C 23.578125 -49.230469 23.578125 -49.296875 23.507812 -49.296875 C 23.507812 -49.296875 23.4375 -49.367188 23.4375 -49.367188 C 23.371094 -49.367188 23.371094 -49.367188 23.371094 -49.367188 C 23.371094 -49.367188 23.371094 -49.367188 23.300781 -49.367188 C 23.230469 -49.367188 23.230469 -49.367188 23.230469 -49.367188 C 23.230469 -49.367188 23.230469 -49.296875 23.230469 -49.296875 C 23.164062 -49.296875 23.164062 -49.296875 23.164062 -49.296875 C 23.164062 -49.296875 23.164062 -49.230469 23.164062 -49.230469 L 19.222656 -39.480469 C 19.222656 -39.410156 19.222656 -39.34375 19.222656 -39.273438 L 28.902344 -15.003906 L 9.609375 -15.003906 C 9.609375 -15.003906 9.609375 -15.003906 9.542969 -15.003906 C 9.542969 -15.003906 9.542969 -14.933594 9.472656 -14.933594 C 9.472656 -14.867188 9.402344 -14.867188 9.402344 -14.867188 L 4.769531 -3.179688 C 4.078125 -1.519531 2.210938 -0.207031 0.621094 -0.207031 C 0.484375 -0.207031 0.414062 -0.0703125 0.414062 0.0703125 C 0.414062 0.136719 0.484375 0.277344 0.621094 0.277344 L 6.84375 0.277344 C 6.984375 0.277344 7.050781 0.136719 7.050781 0.0703125 C 7.050781 -0.0703125 6.984375 -0.207031 6.84375 -0.207031 C 6.152344 -0.207031 5.601562 -0.484375 5.253906 -0.898438 C 4.910156 -1.453125 4.910156 -2.210938 5.1875 -2.972656 L 9.816406 -14.519531 L 29.109375 -14.519531 L 33.742188 -2.972656 C 34.019531 -2.210938 34.019531 -1.453125 33.671875 -0.898438 C 33.328125 -0.484375 32.773438 -0.207031 32.082031 -0.207031 C 31.945312 -0.207031 31.804688 -0.0703125 31.804688 0.0703125 C 31.804688 0.136719 31.945312 0.277344 32.082031 0.277344 L 46.117188 0.277344 C 46.1875 0.277344 46.324219 0.136719 46.324219 0.0703125 C 46.324219 -0.0703125 46.1875 -0.207031 46.117188 -0.207031 Z M 46.117188 -0.207031 "/></g></g></g><g fill="#000000" fill-opacity="1"><g transform="translate(102.969921, 248.147329)"><g><path d="M 1.210938 0 L 4.203125 0 L 4.203125 -0.242188 C 3.585938 -0.394531 3.320312 -0.769531 3.320312 -2.792969 L 3.320312 -8.007812 L 12.472656 -8.007812 L 12.472656 -2.792969 C 12.472656 -0.769531 12.207031 -0.394531 11.59375 -0.242188 L 11.59375 0 L 14.585938 0 L 14.585938 -0.242188 C 13.96875 -0.394531 13.703125 -0.769531 13.703125 -2.792969 L 13.703125 -12.605469 C 13.703125 -14.628906 13.96875 -15.003906 14.585938 -15.15625 L 14.585938 -15.398438 L 11.59375 -15.398438 L 11.59375 -15.15625 C 12.207031 -15.003906 12.472656 -14.628906 12.472656 -12.605469 L 12.472656 -8.316406 L 3.320312 -8.316406 L 3.320312 -12.605469 C 3.320312 -14.628906 3.585938 -15.003906 4.203125 -15.15625 L 4.203125 -15.398438 L 1.210938 -15.398438 L 1.210938 -15.15625 C 1.824219 -15.003906 2.089844 -14.628906 2.089844 -12.605469 L 2.089844 -2.792969 C 2.089844 -0.769531 1.824219 -0.394531 1.210938 -0.242188 Z M 1.210938 0 "/></g></g></g><g fill="#000000" fill-opacity="1"><g transform="translate(122.613105, 248.147329)"><g><path d="M 8.863281 0.21875 C 12.5625 0.21875 16.609375 -2.113281 16.609375 -7.632812 C 16.609375 -13.023438 12.582031 -15.574219 8.863281 -15.574219 C 4.203125 -15.574219 1.101562 -12.339844 1.101562 -7.675781 C 1.101562 -2.289062 5.125 0.21875 8.863281 0.21875 Z M 2.289062 -8.863281 C 2.289062 -12.496094 4.507812 -15.15625 8.226562 -15.15625 C 12.339844 -15.15625 15.441406 -10.976562 15.441406 -6.488281 C 15.441406 -2.75 13.132812 -0.199219 9.4375 -0.199219 C 5.300781 -0.199219 2.289062 -4.421875 2.289062 -8.863281 Z M 2.289062 -8.863281 "/></g></g></g><g fill="#000000" fill-opacity="1"><g transform="translate(144.169948, 248.147329)"><g><path d="M 6.246094 0.21875 C 8.929688 0.21875 11.242188 -1.472656 11.242188 -3.914062 C 11.242188 -6.226562 9.328125 -7.191406 6.710938 -8.269531 C 4.683594 -9.105469 2.375 -10.007812 2.375 -12.164062 C 2.375 -14.210938 4.027344 -15.222656 5.828125 -15.222656 C 8.753906 -15.222656 9.941406 -13.703125 10.667969 -12.1875 L 10.84375 -12.230469 L 10.757812 -14.453125 C 10.207031 -14.804688 8.820312 -15.550781 6.402344 -15.550781 C 3.410156 -15.550781 1.363281 -13.992188 1.363281 -11.570312 C 1.363281 -9.480469 2.726562 -8.402344 5.699219 -7.238281 C 7.65625 -6.46875 10.183594 -5.433594 10.183594 -3.191406 C 10.183594 -1.429688 8.558594 -0.109375 6.554688 -0.109375 C 3.320312 -0.109375 1.957031 -2.066406 1.210938 -4.179688 L 0.988281 -4.15625 L 1.144531 -1.34375 C 2.066406 -0.683594 3.894531 0.21875 6.246094 0.21875 Z M 6.246094 0.21875 "/></g></g></g><g fill="#000000" fill-opacity="1"><g transform="translate(160.073796, 248.147329)"><g><path d="M 1.210938 0 L 4.203125 0 L 4.203125 -0.242188 C 3.585938 -0.394531 3.320312 -0.769531 3.320312 -2.792969 L 3.320312 -6.160156 L 5.433594 -6.160156 C 9.0625 -6.160156 11.371094 -7.875 11.371094 -11 C 11.371094 -13.507812 9.589844 -15.398438 5.5 -15.398438 L 1.210938 -15.398438 L 1.210938 -15.15625 C 1.824219 -15.003906 2.089844 -14.628906 2.089844 -12.605469 L 2.089844 -2.792969 C 2.089844 -0.769531 1.824219 -0.394531 1.210938 -0.242188 Z M 3.320312 -6.46875 L 3.320312 -15.046875 C 3.71875 -15.066406 4.113281 -15.089844 4.507812 -15.089844 C 8.117188 -15.089844 10.007812 -13.417969 10.007812 -10.558594 C 10.007812 -7.832031 8.203125 -6.46875 5.433594 -6.46875 Z M 3.320312 -6.46875 "/></g></g></g><g fill="#000000" fill-opacity="1"><g transform="translate(175.911662, 248.147329)"><g><path d="M 1.210938 0 L 4.203125 0 L 4.203125 -0.242188 C 3.585938 -0.394531 3.320312 -0.769531 3.320312 -2.792969 L 3.320312 -12.605469 C 3.320312 -14.628906 3.585938 -15.003906 4.203125 -15.15625 L 4.203125 -15.398438 L 1.210938 -15.398438 L 1.210938 -15.15625 C 1.824219 -15.003906 2.089844 -14.628906 2.089844 -12.605469 L 2.089844 -2.792969 C 2.089844 -0.769531 1.824219 -0.394531 1.210938 -0.242188 Z M 1.210938 0 "/></g></g></g><g fill="#000000" fill-opacity="1"><g transform="translate(185.172701, 248.147329)"><g><path d="M 4.640625 0 L 7.65625 0 L 7.65625 -0.242188 C 7.039062 -0.394531 6.773438 -0.769531 6.773438 -2.792969 L 6.773438 -15.113281 L 8.25 -15.113281 C 10.230469 -15.113281 10.976562 -14.585938 11.636719 -13.175781 L 11.835938 -13.21875 L 11.703125 -15.398438 L 0.550781 -15.398438 L 0.417969 -13.21875 L 0.617188 -13.175781 C 1.277344 -14.585938 2.023438 -15.113281 4.003906 -15.113281 L 5.519531 -15.113281 L 5.519531 -2.792969 C 5.519531 -0.769531 5.257812 -0.394531 4.640625 -0.242188 Z M 4.640625 0 "/></g></g></g><g fill="#000000" fill-opacity="1"><g transform="translate(201.318505, 248.147329)"><g><path d="M -0.265625 0 L 2.132812 0 L 2.132812 -0.242188 C 1.363281 -0.394531 1.363281 -1.210938 1.9375 -2.597656 L 3.253906 -5.875 L 9.8125 -5.875 L 11.175781 -2.574219 C 11.945312 -0.703125 11.964844 -0.394531 11.351562 -0.242188 L 11.351562 0 L 14.121094 0 L 14.121094 -0.242188 C 13.683594 -0.394531 13.21875 -0.703125 12.449219 -2.574219 L 7.105469 -15.550781 L 5.984375 -15.066406 L 6.117188 -14.78125 C 6.269531 -14.472656 6.292969 -14.230469 6.160156 -13.902344 L 1.582031 -2.597656 C 0.8125 -0.703125 0.285156 -0.394531 -0.265625 -0.242188 Z M 3.386719 -6.179688 L 6.488281 -13.902344 L 9.679688 -6.179688 Z M 3.386719 -6.179688 "/></g></g></g><g fill="#000000" fill-opacity="1"><g transform="translate(219.202004, 248.147329)"><g><path d="M 1.210938 0 L 11.175781 0 L 11.308594 -2.179688 L 11.109375 -2.222656 C 10.449219 -0.8125 9.699219 -0.285156 7.722656 -0.285156 L 4.203125 -0.285156 C 3.628906 -0.285156 3.320312 -0.59375 3.320312 -1.164062 L 3.320312 -12.605469 C 3.320312 -14.628906 3.585938 -15.003906 4.203125 -15.15625 L 4.203125 -15.398438 L 1.210938 -15.398438 L 1.210938 -15.15625 C 1.824219 -15.003906 2.089844 -14.628906 2.089844 -12.605469 L 2.089844 -2.792969 C 2.089844 -0.769531 1.824219 -0.394531 1.210938 -0.242188 Z M 1.210938 0 "/></g></g></g><g fill="#000000" fill-opacity="1"><g transform="translate(234.863895, 248.147329)"><g><path d="M 1.210938 0 L 4.203125 0 L 4.203125 -0.242188 C 3.585938 -0.394531 3.320312 -0.769531 3.320312 -2.792969 L 3.320312 -12.605469 C 3.320312 -14.628906 3.585938 -15.003906 4.203125 -15.15625 L 4.203125 -15.398438 L 1.210938 -15.398438 L 1.210938 -15.15625 C 1.824219 -15.003906 2.089844 -14.628906 2.089844 -12.605469 L 2.089844 -2.792969 C 2.089844 -0.769531 1.824219 -0.394531 1.210938 -0.242188 Z M 1.210938 0 "/></g></g></g><g fill="#000000" fill-opacity="1"><g transform="translate(244.124934, 248.147329)"><g><path d="M 4.640625 0 L 7.65625 0 L 7.65625 -0.242188 C 7.039062 -0.394531 6.773438 -0.769531 6.773438 -2.792969 L 6.773438 -15.113281 L 8.25 -15.113281 C 10.230469 -15.113281 10.976562 -14.585938 11.636719 -13.175781 L 11.835938 -13.21875 L 11.703125 -15.398438 L 0.550781 -15.398438 L 0.417969 -13.21875 L 0.617188 -13.175781 C 1.277344 -14.585938 2.023438 -15.113281 4.003906 -15.113281 L 5.519531 -15.113281 L 5.519531 -2.792969 C 5.519531 -0.769531 5.257812 -0.394531 4.640625 -0.242188 Z M 4.640625 0 "/></g></g></g><g fill="#000000" fill-opacity="1"><g transform="translate(260.270738, 248.147329)"><g><path d="M 4.265625 0 L 7.28125 0 L 7.28125 -0.242188 C 6.664062 -0.394531 6.402344 -0.769531 6.402344 -2.792969 L 6.402344 -6.863281 L 9.832031 -12.957031 C 10.824219 -14.714844 11.4375 -15.003906 11.988281 -15.15625 L 11.988281 -15.398438 L 9.589844 -15.398438 L 9.589844 -15.15625 C 10.359375 -15.003906 10.207031 -14.277344 9.457031 -12.957031 L 6.246094 -7.28125 L 3.058594 -12.957031 C 2.066406 -14.714844 1.957031 -15.003906 2.574219 -15.15625 L 2.574219 -15.398438 L -0.21875 -15.398438 L -0.21875 -15.15625 C 0.21875 -15.003906 0.769531 -14.714844 1.738281 -12.957031 L 5.125 -6.820312 L 5.148438 -2.792969 C 5.148438 -0.769531 4.882812 -0.394531 4.265625 -0.242188 Z M 4.265625 0 "/></g></g></g></svg>