<svg width="180" height="60" viewBox="0 0 211 68" fill="none" xmlns="http://www.w3.org/2000/svg">
<path d="M10.0318 1.11337C10.1348 1.11337 10.1834 1.06472 10.1834 0.96168C10.1834 0.861506 10.1348 0.758469 10.0318 0.758469H0.154554C0.0515179 0.758469 0 0.861506 0 0.96168C0 1.06472 0.0515179 1.11337 0.154554 1.11337C1.31944 1.11337 2.28111 2.07791 2.28111 3.24279V33.8904C2.28111 35.0582 1.31944 36.0199 0.154554 36.0199C0.0515179 36.0199 0 36.12 0 36.1716C0 36.2717 0.0515179 36.3748 0.154554 36.3748H10.0318C10.1348 36.3748 10.1834 36.2717 10.1834 36.1716C10.1834 36.12 10.1348 36.0199 10.0318 36.0199C8.86687 36.0199 7.90519 35.0582 7.90519 33.8904V3.24279C7.90519 2.07791 8.86687 1.11337 10.0318 1.11337ZM28.169 36.0199C26.9526 36.0199 25.4328 35.0582 24.723 33.8418L14.6942 16.2626L24.3195 3.34297C25.2296 2.12656 26.9526 1.11337 28.169 1.11337C28.2692 1.11337 28.3207 1.06472 28.3207 0.96168C28.3207 0.861506 28.2692 0.758469 28.169 0.758469H23.6097C23.5066 0.758469 23.4065 0.861506 23.4065 0.96168C23.4065 1.06472 23.5066 1.11337 23.6097 1.11337C23.9131 1.11337 24.3195 1.21641 24.4712 1.51979C24.6744 1.8747 24.5198 2.48147 24.0132 3.13976L10.8933 20.7705C10.8417 20.822 10.8417 20.822 10.8417 20.822C10.8417 20.8706 10.8417 20.8706 10.8417 20.8706C10.8417 20.8706 10.8417 20.8706 10.8417 20.9221V20.9737L18.289 33.9935C18.6439 34.6002 18.7469 35.1584 18.4922 35.5648C18.3405 35.8682 17.9856 36.0199 17.479 36.0199C17.3788 36.0199 17.3273 36.12 17.3273 36.1716C17.3273 36.2717 17.3788 36.3748 17.479 36.3748H28.169C28.2692 36.3748 28.3207 36.2717 28.3207 36.1716C28.3207 36.12 28.2692 36.0199 28.169 36.0199Z" fill="#151515"/>
<path d="M60.6925 9.3706C60.6925 9.47364 60.7441 9.57382 60.8442 9.57382C60.9444 9.57382 61.0474 9.47364 61.0474 9.3706V0.96168C61.0474 0.861506 60.9444 0.758469 60.8442 0.758469H35.0593C34.9563 0.758469 34.9048 0.861506 34.9048 0.96168C34.9048 1.06472 34.9563 1.11337 35.0593 1.11337C36.2242 1.11337 37.1859 2.07791 37.1859 3.24279V33.8904C37.1859 35.0582 36.2242 36.0199 35.0593 36.0199C34.9563 36.0199 34.9048 36.12 34.9048 36.1716C34.9048 36.2717 34.9563 36.3748 35.0593 36.3748H42.6068H42.6583H60.8442C60.9444 36.3748 61.0474 36.2717 61.0474 36.2231V27.7626C61.0474 27.6596 60.9444 27.5594 60.8442 27.5594C60.7441 27.5594 60.6925 27.6596 60.6925 27.7626C60.6925 32.322 56.9432 36.0199 52.3838 36.0199H42.81V1.11337H52.3838C56.9432 1.11337 60.6925 4.81124 60.6925 9.3706ZM52.0289 12.5647C52.0289 15.8047 49.3957 18.3892 46.2045 18.3892C46.1014 18.3892 46.0012 18.4922 46.0012 18.5924C46.0012 18.6439 46.1014 18.7441 46.2045 18.7441C49.3957 18.7441 52.0289 21.3772 52.0289 24.5714C52.0289 24.6715 52.0804 24.7717 52.1806 24.7717C52.2836 24.7717 52.3838 24.6715 52.3838 24.5714V12.5647C52.3838 12.4617 52.2836 12.4102 52.1806 12.4102C52.0804 12.4102 52.0289 12.4617 52.0289 12.5647Z" fill="#151515"/>
<path d="M95.3943 27.5594C95.2941 27.5594 95.2426 27.6596 95.2426 27.7626C95.2426 32.322 91.4932 36.0199 86.9338 36.0199H77.36V3.24279C77.36 2.07791 78.3217 1.11337 79.4866 1.11337C79.5896 1.11337 79.6383 1.06472 79.6383 0.96168C79.6383 0.861506 79.5896 0.758469 79.4866 0.758469H69.6094C69.5064 0.758469 69.4548 0.861506 69.4548 0.96168C69.4548 1.06472 69.5064 1.11337 69.6094 1.11337C70.7743 1.11337 71.7359 2.07791 71.7359 3.24279V33.8904C71.7359 35.0582 70.7743 36.0199 69.6094 36.0199C69.5064 36.0199 69.4548 36.12 69.4548 36.1716C69.4548 36.2717 69.5064 36.3748 69.6094 36.3748H95.3943C95.4945 36.3748 95.5975 36.2717 95.5975 36.1716V27.7626C95.5975 27.6596 95.4945 27.5594 95.3943 27.5594Z" fill="#151515"/>
<path d="M120.267 0C110.542 0 102.688 8.30875 102.688 18.5408C102.688 28.7758 110.542 37.0846 120.267 37.0846C129.944 37.0846 137.849 28.7758 137.849 18.5408C137.849 8.30875 129.944 0 120.267 0ZM120.267 36.7297C114.036 36.7297 108.97 28.5726 108.97 18.5408C108.97 8.51196 114.036 0.354904 120.267 0.354904C126.449 0.354904 131.515 8.51196 131.515 18.5408C131.515 28.5726 126.449 36.7297 120.267 36.7297Z" fill="#151515"/>
<path d="M171.891 27.5594C171.791 27.5594 171.739 27.6596 171.739 27.7626C171.739 32.322 167.99 36.0199 163.431 36.0199H153.857V3.24279C153.857 2.07791 154.819 1.11337 155.983 1.11337C156.086 1.11337 156.135 1.06472 156.135 0.96168C156.135 0.861506 156.086 0.758469 155.983 0.758469H146.106C146.003 0.758469 145.952 0.861506 145.952 0.96168C145.952 1.06472 146.003 1.11337 146.106 1.11337C147.271 1.11337 148.233 2.07791 148.233 3.24279V33.8904C148.233 35.0582 147.271 36.0199 146.106 36.0199C146.003 36.0199 145.952 36.12 145.952 36.1716C145.952 36.2717 146.003 36.3748 146.106 36.3748H171.891C171.991 36.3748 172.094 36.2717 172.094 36.1716V27.7626C172.094 27.6596 171.991 27.5594 171.891 27.5594Z" fill="#151515"/>
<path d="M210.848 36.0199C209.632 36.0199 208.315 35.0582 207.809 33.8904L194.334 0.100174C194.334 0.100174 194.334 0.0515183 194.282 0.0515183L194.231 0C194.182 0 194.182 0 194.182 0C194.182 0 194.182 0 194.131 0C194.079 0 194.079 0 194.079 0V0.0515183C194.03 0.0515183 194.03 0.0515183 194.03 0.0515183V0.100174L191.142 7.24404C191.142 7.29556 191.142 7.34422 191.142 7.39573L198.235 25.1781H184.099C184.099 25.1781 184.099 25.1781 184.05 25.1781C184.05 25.1781 184.05 25.2296 183.999 25.2296C183.999 25.2783 183.947 25.2783 183.947 25.2783L180.553 33.8418C180.046 35.0582 178.678 36.0199 177.513 36.0199C177.413 36.0199 177.361 36.12 177.361 36.2231C177.361 36.2717 177.413 36.3748 177.513 36.3748H182.072C182.175 36.3748 182.224 36.2717 182.224 36.2231C182.224 36.12 182.175 36.0199 182.072 36.0199C181.566 36.0199 181.162 35.8166 180.908 35.5133C180.656 35.1068 180.656 34.5516 180.859 33.9935L184.25 25.533H198.387L201.781 33.9935C201.984 34.5516 201.984 35.1068 201.729 35.5133C201.478 35.8166 201.071 36.0199 200.565 36.0199C200.464 36.0199 200.361 36.12 200.361 36.2231C200.361 36.2717 200.464 36.3748 200.565 36.3748H210.848C210.9 36.3748 211 36.2717 211 36.2231C211 36.12 210.9 36.0199 210.848 36.0199Z" fill="#151515"/>
<path d="M40.8013 67.4106H42.9937V67.2331C42.5414 67.1215 42.3468 66.8467 42.3468 65.3641V61.5432H49.0528V65.3641C49.0528 66.8467 48.8582 67.1215 48.4088 67.2331V67.4106H50.6012V67.2331C50.149 67.1215 49.9543 66.8467 49.9543 65.3641V58.1745C49.9543 56.6919 50.149 56.4171 50.6012 56.3055V56.1281H48.4088V56.3055C48.8582 56.4171 49.0528 56.6919 49.0528 58.1745V61.3171H42.3468V58.1745C42.3468 56.6919 42.5414 56.4171 42.9937 56.3055V56.1281H40.8013V56.3055C41.2506 56.4171 41.4452 56.6919 41.4452 58.1745V65.3641C41.4452 66.8467 41.2506 67.1215 40.8013 67.2331V67.4106Z" fill="#151515"/>
<path d="M60.8008 67.5708C63.5112 67.5708 66.4764 65.8622 66.4764 61.818C66.4764 57.8682 63.5256 55.9993 60.8008 55.9993C57.3863 55.9993 55.1138 58.3691 55.1138 61.7865C55.1138 65.7334 58.0618 67.5708 60.8008 67.5708ZM55.9839 60.9164C55.9839 58.2546 57.6095 56.3055 60.3343 56.3055C63.3481 56.3055 65.6206 59.368 65.6206 62.6566C65.6206 65.3956 63.9291 67.2646 61.2215 67.2646C58.1906 67.2646 55.9839 64.1706 55.9839 60.9164Z" fill="#151515"/>
<path d="M74.6779 67.5709C76.6441 67.5709 78.3385 66.3315 78.3385 64.5427C78.3385 62.8483 76.9361 62.1414 75.0185 61.3515C73.533 60.739 71.8415 60.0778 71.8415 58.4979C71.8415 56.9982 73.0522 56.2569 74.3716 56.2569C76.5153 56.2569 77.3854 57.3702 77.9178 58.4807L78.0466 58.4493L77.9836 56.8207C77.5801 56.5631 76.564 56.0164 74.7923 56.0164C72.6 56.0164 71.1002 57.1584 71.1002 58.933C71.1002 60.4642 72.0991 61.2541 74.2772 62.1071C75.7111 62.6709 77.5629 63.4294 77.5629 65.0722C77.5629 66.363 76.3722 67.3304 74.904 67.3304C72.5341 67.3304 71.5352 65.8965 70.9886 64.3481L70.8254 64.3653L70.9399 66.426C71.6154 66.9097 72.9549 67.5709 74.6779 67.5709Z" fill="#151515"/>
<path d="M82.6416 67.4106H84.834V67.2331C84.3818 67.1215 84.1871 66.8467 84.1871 65.3641V62.897H85.7356C88.3945 62.897 90.086 61.6405 90.086 59.3508C90.086 57.5133 88.7809 56.1281 85.7842 56.1281H82.6416V56.3055C83.091 56.4171 83.2856 56.6919 83.2856 58.1745V65.3641C83.2856 66.8467 83.091 67.1215 82.6416 67.2331V67.4106ZM84.1871 62.6709V56.3856C84.4791 56.3713 84.7682 56.3542 85.0572 56.3542C87.7018 56.3542 89.0871 57.5792 89.0871 59.6742C89.0871 61.672 87.7648 62.6709 85.7356 62.6709H84.1871Z" fill="#151515"/>
<path d="M94.2458 67.4106H96.4382V67.2331C95.986 67.1215 95.7914 66.8467 95.7914 65.3641V58.1745C95.7914 56.6919 95.986 56.4171 96.4382 56.3055V56.1281H94.2458V56.3055C94.6952 56.4171 94.8898 56.6919 94.8898 58.1745V65.3641C94.8898 66.8467 94.6952 67.1215 94.2458 67.2331V67.4106Z" fill="#151515"/>
<path d="M103.544 67.4106H105.754V67.2331C105.302 67.1215 105.107 66.8467 105.107 65.3641V56.337H106.189C107.64 56.337 108.187 56.7234 108.67 57.7566L108.816 57.7251L108.719 56.1281H100.548L100.45 57.7251L100.596 57.7566C101.08 56.7234 101.627 56.337 103.078 56.337H104.188V65.3641C104.188 66.8467 103.997 67.1215 103.544 67.2331V67.4106Z" fill="#151515"/>
<path d="M111.78 67.4106H113.537V67.2331C112.973 67.1215 112.973 66.5233 113.394 65.5073L114.359 63.1059H119.164L120.163 65.5244C120.727 66.8954 120.741 67.1215 120.292 67.2331V67.4106H122.321V67.2331C122 67.1215 121.66 66.8954 121.096 65.5244L117.181 56.0164L116.359 56.3714L116.456 56.5803C116.568 56.8064 116.585 56.9838 116.488 57.2243L113.134 65.5073C112.57 66.8954 112.183 67.1215 111.78 67.2331V67.4106ZM114.456 62.8827L116.728 57.2243L119.067 62.8827H114.456Z" fill="#151515"/>
<path d="M125.965 67.4106H133.266L133.364 65.8135L133.218 65.782C132.734 66.8152 132.184 67.2016 130.736 67.2016H128.157C127.737 67.2016 127.511 66.9755 127.511 66.5576V58.1745C127.511 56.6919 127.705 56.4171 128.157 56.3055V56.1281H125.965V56.3055C126.414 56.4171 126.609 56.6919 126.609 58.1745V65.3641C126.609 66.8467 126.414 67.1215 125.965 67.2331V67.4106Z" fill="#151515"/>
<path d="M137.44 67.4106H139.633V67.2331C139.181 67.1215 138.986 66.8467 138.986 65.3641V58.1745C138.986 56.6919 139.181 56.4171 139.633 56.3055V56.1281H137.44V56.3055C137.89 56.4171 138.084 56.6919 138.084 58.1745V65.3641C138.084 66.8467 137.89 67.1215 137.44 67.2331V67.4106Z" fill="#151515"/>
<path d="M146.739 67.4106H148.949V67.2331C148.496 67.1215 148.302 66.8467 148.302 65.3641V56.337H149.384C150.835 56.337 151.381 56.7234 151.865 57.7566L152.011 57.7251L151.914 56.1281H143.742L143.645 57.7251L143.791 57.7566C144.275 56.7234 144.821 56.337 146.272 56.337H147.383V65.3641C147.383 66.8467 147.191 67.1215 146.739 67.2331V67.4106Z" fill="#151515"/>
<path d="M158.294 67.4106H160.504V67.2331C160.052 67.1215 159.86 66.8467 159.86 65.3641V62.3818L162.373 57.9169C163.1 56.6289 163.549 56.4171 163.953 56.3055V56.1281H162.195V56.3055C162.759 56.4171 162.648 56.9495 162.098 57.9169L159.745 62.0755L157.41 57.9169C156.683 56.6289 156.603 56.4171 157.055 56.3055V56.1281H155.009V56.3055C155.329 56.4171 155.733 56.6289 156.442 57.9169L158.924 62.4133L158.941 65.3641C158.941 66.8467 158.746 67.1215 158.294 67.2331V67.4106Z" fill="#151515"/>
</svg>
